HIERARCHY
ROOT mixamorig:Hips
{
	OFFSET 0.000000 201.639420 0.000000
	CHANNELS 6 Xposition Yposition Zposition Xrotation Yrotation Zrotation
	JOINT mixamorig:Spine
	{
		OFFSET 0.006200 19.524994 -2.481800
		CHANNELS 3 Xrotation Yrotation Zrotation
		JOINT mixamorig:Spine1
		{
			OFFSET -0.000900 22.835007 -2.825400
			CHANNELS 3 Xrotation Yrotation Zrotation
			JOINT mixamorig:Spine2
			{
				OFFSET -0.020600 26.552490 -3.193300
				CHANNELS 3 Xrotation Yrotation Zrotation
				JOINT mixamorig:Neck
				{
					OFFSET -0.060000 30.701813 1.352200
					CHANNELS 3 Xrotation Yrotation Zrotation
					JOINT mixamorig:Head
					{
						OFFSET -0.087200 22.547607 3.670900
						CHANNELS 3 Xrotation Yrotation Zrotation
						JOINT mixamorig:HeadTop_End
						{
							OFFSET -0.830600 40.355194 7.893500
							CHANNELS 3 Xrotation Yrotation Zrotation
							End Site
							{
								OFFSET 0.000000 30.592346 0.000000
							}
						}
						JOINT mixamorig:RightEye
						{
							OFFSET -6.302100 18.118591 16.197100
							CHANNELS 3 Xrotation Yrotation Zrotation
							End Site
							{
								OFFSET 0.000000 30.592346 0.000000
							}
						}
						JOINT mixamorig:LeftEye
						{
							OFFSET 6.741500 18.382690 16.401899
							CHANNELS 3 Xrotation Yrotation Zrotation
							End Site
							{
								OFFSET 0.000000 30.592346 0.000000
							}
						}
					}
				}
				JOINT mixamorig:LeftShoulder
				{
					OFFSET 11.924900 18.230499 1.425400
					CHANNELS 3 Xrotation Yrotation Zrotation
					JOINT mixamorig:LeftArm
					{
						OFFSET 25.435989 -0.697632 -5.229300
						CHANNELS 3 Xrotation Yrotation Zrotation
						JOINT mixamorig:LeftForeArm
						{
							OFFSET 54.684776 0.000000 0.000000
							CHANNELS 3 Xrotation Yrotation Zrotation
							JOINT mixamorig:LeftHand
							{
								OFFSET 55.098175 0.000000 0.000000
								CHANNELS 3 Xrotation Yrotation Zrotation
								JOINT mixamorig:LeftHandMiddle1
								{
									OFFSET 23.369751 0.000000 0.000000
									CHANNELS 3 Xrotation Yrotation Zrotation
									JOINT mixamorig:LeftHandMiddle2
									{
										OFFSET 6.378677 0.000000 0.000000
										CHANNELS 3 Xrotation Yrotation Zrotation
										JOINT mixamorig:LeftHandMiddle3
										{
											OFFSET 6.148331 0.000000 0.000000
											CHANNELS 3 Xrotation Yrotation Zrotation
											JOINT mixamorig:LeftHandMiddle4
											{
												OFFSET 6.582504 0.000000 0.000000
												CHANNELS 3 Xrotation Yrotation Zrotation
												End Site
												{
													OFFSET -1.168900 6.395691 1.028606
												}
											}
										}
									}
								}
								JOINT mixamorig:LeftHandThumb1
								{
									OFFSET 7.235672 -3.848206 5.434273
									CHANNELS 3 Xrotation Yrotation Zrotation
									JOINT mixamorig:LeftHandThumb2
									{
										OFFSET 6.568451 -3.792297 3.792300
										CHANNELS 3 Xrotation Yrotation Zrotation
										JOINT mixamorig:LeftHandThumb3
										{
											OFFSET 6.063080 -3.500519 3.500518
											CHANNELS 3 Xrotation Yrotation Zrotation
											JOINT mixamorig:LeftHandThumb4
											{
												OFFSET 4.793182 -2.767334 2.767349
												CHANNELS 3 Xrotation Yrotation Zrotation
												End Site
												{
													OFFSET 0.101639 6.054260 1.275483
												}
											}
										}
									}
								}
								JOINT mixamorig:LeftHandIndex1
								{
									OFFSET 23.101074 -0.309540 4.992809
									CHANNELS 3 Xrotation Yrotation Zrotation
									JOINT mixamorig:LeftHandIndex2
									{
										OFFSET 6.226883 0.000000 0.000000
										CHANNELS 3 Xrotation Yrotation Zrotation
										JOINT mixamorig:LeftHandIndex3
										{
											OFFSET 6.094330 0.000000 0.000000
											CHANNELS 3 Xrotation Yrotation Zrotation
											JOINT mixamorig:LeftHandIndex4
											{
												OFFSET 5.482605 0.000000 0.000000
												CHANNELS 3 Xrotation Yrotation Zrotation
												End Site
												{
													OFFSET -1.427902 5.233032 0.797164
												}
											}
										}
									}
								}
								JOINT mixamorig:LeftHandRing1
								{
									OFFSET 22.299240 0.021149 -3.964172
									CHANNELS 3 Xrotation Yrotation Zrotation
									JOINT mixamorig:LeftHandRing2
									{
										OFFSET 6.321869 0.000000 0.000000
										CHANNELS 3 Xrotation Yrotation Zrotation
										JOINT mixamorig:LeftHandRing3
										{
											OFFSET 5.899796 0.000000 0.000000
											CHANNELS 3 Xrotation Yrotation Zrotation
											JOINT mixamorig:LeftHandRing4
											{
												OFFSET 6.517899 0.000000 0.000000
												CHANNELS 3 Xrotation Yrotation Zrotation
												End Site
												{
													OFFSET -1.637299 6.232208 0.980890
												}
											}
										}
									}
								}
								JOINT mixamorig:LeftHandPinky1
								{
									OFFSET 20.463791 -0.302338 -8.562233
									CHANNELS 3 Xrotation Yrotation Zrotation
									JOINT mixamorig:LeftHandPinky2
									{
										OFFSET 6.908646 0.000000 0.000000
										CHANNELS 3 Xrotation Yrotation Zrotation
										JOINT mixamorig:LeftHandPinky3
										{
											OFFSET 4.622849 0.000000 0.000000
											CHANNELS 3 Xrotation Yrotation Zrotation
											JOINT mixamorig:LeftHandPinky4
											{
												OFFSET 5.216080 0.000000 0.000000
												CHANNELS 3 Xrotation Yrotation Zrotation
												End Site
												{
													OFFSET -0.606308 5.116241 0.814926
												}
											}
										}
									}
								}
							}
						}
					}
				}
				JOINT mixamorig:RightShoulder
				{
					OFFSET -12.001300 18.284088 1.348900
					CHANNELS 3 Xrotation Yrotation Zrotation
					JOINT mixamorig:RightArm
					{
						OFFSET -25.308500 -0.751312 -5.164599
						CHANNELS 3 Xrotation Yrotation Zrotation
						JOINT mixamorig:RightForeArm
						{
							OFFSET -54.684429 0.000000 0.000000
							CHANNELS 3 Xrotation Yrotation Zrotation
							JOINT mixamorig:RightHand
							{
								OFFSET -55.150291 0.000000 0.000000
								CHANNELS 3 Xrotation Yrotation Zrotation
								JOINT mixamorig:RightHandMiddle1
								{
									OFFSET -23.317566 0.000000 0.000000
									CHANNELS 3 Xrotation Yrotation Zrotation
									JOINT mixamorig:RightHandMiddle2
									{
										OFFSET -6.378403 0.000000 0.000000
										CHANNELS 3 Xrotation Yrotation Zrotation
										JOINT mixamorig:RightHandMiddle3
										{
											OFFSET -6.148193 0.000000 0.000000
											CHANNELS 3 Xrotation Yrotation Zrotation
											JOINT mixamorig:RightHandMiddle4
											{
												OFFSET -6.583389 0.000000 0.000000
												CHANNELS 3 Xrotation Yrotation Zrotation
												End Site
												{
													OFFSET 1.171692 6.395905 1.029786
												}
											}
										}
									}
								}
								JOINT mixamorig:RightHandThumb1
								{
									OFFSET -7.190521 -3.860474 5.435846
									CHANNELS 3 Xrotation Yrotation Zrotation
									JOINT mixamorig:RightHandThumb2
									{
										OFFSET -6.567429 -3.791718 3.791708
										CHANNELS 3 Xrotation Yrotation Zrotation
										JOINT mixamorig:RightHandThumb3
										{
											OFFSET -6.062469 -3.500153 3.500166
											CHANNELS 3 Xrotation Yrotation Zrotation
											JOINT mixamorig:RightHandThumb4
											{
												OFFSET -4.792618 -2.767029 2.767022
												CHANNELS 3 Xrotation Yrotation Zrotation
												End Site
												{
													OFFSET -0.100327 6.053253 1.276754
												}
											}
										}
									}
								}
								JOINT mixamorig:RightHandIndex1
								{
									OFFSET -23.048981 -0.310791 4.992554
									CHANNELS 3 Xrotation Yrotation Zrotation
									JOINT mixamorig:RightHandIndex2
									{
										OFFSET -6.227539 0.000000 0.000000
										CHANNELS 3 Xrotation Yrotation Zrotation
										JOINT mixamorig:RightHandIndex3
										{
											OFFSET -6.095047 0.000000 0.000000
											CHANNELS 3 Xrotation Yrotation Zrotation
											JOINT mixamorig:RightHandIndex4
											{
												OFFSET -5.484772 0.000000 0.000000
												CHANNELS 3 Xrotation Yrotation Zrotation
												End Site
												{
													OFFSET 1.420593 5.237305 0.797056
												}
											}
										}
									}
								}
								JOINT mixamorig:RightHandRing1
								{
									OFFSET -22.246323 0.020569 -3.963762
									CHANNELS 3 Xrotation Yrotation Zrotation
									JOINT mixamorig:RightHandRing2
									{
										OFFSET -6.322128 0.000000 0.000000
										CHANNELS 3 Xrotation Yrotation Zrotation
										JOINT mixamorig:RightHandRing3
										{
											OFFSET -5.900024 0.000000 0.000000
											CHANNELS 3 Xrotation Yrotation Zrotation
											JOINT mixamorig:RightHandRing4
											{
												OFFSET -6.518356 0.000000 0.000000
												CHANNELS 3 Xrotation Yrotation Zrotation
												End Site
												{
													OFFSET 1.636398 6.232697 0.982186
												}
											}
										}
									}
								}
								JOINT mixamorig:RightHandPinky1
								{
									OFFSET -20.411011 -0.303314 -8.561701
									CHANNELS 3 Xrotation Yrotation Zrotation
									JOINT mixamorig:RightHandPinky2
									{
										OFFSET -6.907349 0.000000 0.000000
										CHANNELS 3 Xrotation Yrotation Zrotation
										JOINT mixamorig:RightHandPinky3
										{
											OFFSET -4.623840 0.000000 0.000000
											CHANNELS 3 Xrotation Yrotation Zrotation
											JOINT mixamorig:RightHandPinky4
											{
												OFFSET -5.218353 0.000000 0.000000
												CHANNELS 3 Xrotation Yrotation Zrotation
												End Site
												{
													OFFSET 0.602097 5.118835 0.816273
												}
											}
										}
									}
								}
							}
						}
					}
				}
			}
		}
	}
	JOINT mixamorig:LeftUpLeg
	{
		OFFSET 18.168400 -13.561905 -0.039000
		CHANNELS 3 Xrotation Yrotation Zrotation
		JOINT mixamorig:LeftLeg
		{
			OFFSET 0.577358 -80.825211 -3.695000
			CHANNELS 3 Xrotation Yrotation Zrotation
			JOINT mixamorig:LeftFoot
			{
				OFFSET -0.577356 -83.370262 -6.520700
				CHANNELS 3 Xrotation Yrotation Zrotation
				JOINT mixamorig:LeftToeBase
				{
					OFFSET 0.750401 -20.798306 25.135401
					CHANNELS 3 Xrotation Yrotation Zrotation
					JOINT mixamorig:LeftToe_End
					{
						OFFSET -0.000500 0.001200 19.917799
						CHANNELS 3 Xrotation Yrotation Zrotation
						End Site
						{
							OFFSET 0.000000 19.917805 0.000000
						}
					}
				}
			}
		}
	}
	JOINT mixamorig:RightUpLeg
	{
		OFFSET -18.162500 -13.585098 -0.041000
		CHANNELS 3 Xrotation Yrotation Zrotation
		JOINT mixamorig:RightLeg
		{
			OFFSET -0.595024 -80.945297 -3.631900
			CHANNELS 3 Xrotation Yrotation Zrotation
			JOINT mixamorig:RightFoot
			{
				OFFSET 0.595024 -83.218193 -6.561200
				CHANNELS 3 Xrotation Yrotation Zrotation
				JOINT mixamorig:RightToeBase
				{
					OFFSET -0.753601 -20.807106 25.115000
					CHANNELS 3 Xrotation Yrotation Zrotation
					JOINT mixamorig:RightToe_End
					{
						OFFSET 0.000299 0.001700 19.918200
						CHANNELS 3 Xrotation Yrotation Zrotation
						End Site
						{
							OFFSET 0.000000 19.918203 0.000000
						}
					}
				}
			}
		}
	}
}
MOTION
Frames: 4
Frame Time: 0.033333
-0.480138 187.919586 0.173033 1.636665 -42.007279 1.515388 10.695442 4.364129 -0.853779 2.906331 0.591659 0.030038 2.905425 0.596365 0.041718 9.082259 1.326044 -6.758043 13.887217 4.869970 -17.609729 -0.000002 -0.000001 -0.000000 -0.000002 -0.000001 -0.000000 -0.000002 -0.000001 -0.000000 1.357855 -4.274552 -3.579920 -29.423656 -6.402688 -55.242819 0.000000 -125.792345 -0.000005 5.436028 -4.807996 17.990054 2.092863 4.947790 -46.064432 5.220665 6.678764 -76.003558 2.704743 5.473692 -52.565122 -0.000000 -0.000003 -0.000000 2.825146 10.329742 0.827376 6.817485 15.268493 2.201409 16.493896 15.543825 -13.682342 0.000002 0.000001 -0.000002 2.622348 5.409901 -51.696250 5.986518 6.823049 -82.511663 3.423549 5.953026 -59.776060 0.000000 -0.000001 0.000000 2.389472 5.219534 -50.118801 5.674823 6.775128 -79.879192 2.984482 5.675920 -55.444071 -0.000000 0.000000 -0.000003 3.934128 6.575428 -48.514458 5.282895 2.607194 -76.579275 2.606548 5.397449 -51.528539 -0.000001 0.000000 0.000000 1.633188 16.956028 -9.285412 -23.147185 25.972805 73.642560 0.000032 115.161210 -0.000054 -12.173603 13.969169 -24.946631 8.473299 -6.779633 102.897497 9.760549 -6.356201 113.927733 9.819567 -6.540606 113.765092 0.000000 -0.000002 0.000003 32.408407 -13.409010 14.972861 6.468311 -18.913439 -13.319967 60.020554 -57.623130 30.238053 -0.000001 -0.000001 0.000001 8.398445 -6.795921 102.075982 9.722794 -6.372660 113.587508 9.722815 -6.372704 113.587480 -0.000000 0.000000 0.000002 5.565203 -7.132967 96.068182 8.903124 -6.668858 106.378721 8.762273 -6.408005 105.842831 -0.000002 0.000001 0.000002 -0.217575 -9.282880 106.046706 7.927440 -6.879220 98.121364 7.927441 -6.879203 98.121336 -0.000002 0.000001 -0.000001 -28.008823 12.297872 19.857571 34.979803 -5.831088 2.852394 -8.661118 1.844326 -14.639269 -2.744775 0.000007 -0.000004 -0.000000 -0.000002 -0.000000 -14.335973 -10.451949 -14.170472 36.268246 1.484928 -1.370386 -22.924260 -3.104081 11.726265 -0.642690 -0.000015 -0.000002 -0.000000 0.000002 0.000000 
-0.008700 187.122635 1.301967 0.947505 -41.259752 1.132562 11.306162 4.135985 -0.494758 2.823436 0.559648 -0.034081 2.823344 0.561071 -0.024216 8.891994 1.297985 -6.676256 13.718873 4.737479 -17.657567 -0.000001 0.000002 -0.000000 -0.000001 0.000002 -0.000000 -0.000001 0.000002 -0.000000 1.414481 -4.472311 -3.882537 -28.335880 -6.586385 -55.774273 -0.000003 -124.898806 -0.000008 5.978262 -4.788124 17.619284 2.092862 4.947790 -46.064432 5.220661 6.678765 -76.003565 2.704745 5.473692 -52.565119 -0.000000 0.000002 0.000001 2.825139 10.329742 0.827375 6.817483 15.268490 2.201411 16.493899 15.543823 -13.682342 0.000004 0.000002 -0.000001 2.622345 5.409902 -51.696250 5.986515 6.823052 -82.511656 3.423550 5.953028 -59.776047 -0.000000 0.000002 0.000002 2.389468 5.219535 -50.118798 5.674820 6.775128 -79.879192 2.984480 5.675921 -55.444074 -0.000001 0.000000 -0.000000 3.934130 6.575425 -48.514465 5.282891 2.607193 -76.579275 2.606550 5.397448 -51.528539 0.000000 -0.000001 0.000000 1.478810 16.485534 -9.540648 -22.586717 26.202393 73.881787 0.000021 114.909204 -0.000041 -12.030110 14.501979 -24.834488 8.473297 -6.779644 102.897497 9.760545 -6.356202 113.927733 9.819564 -6.540612 113.765092 -0.000001 0.000001 -0.000000 32.408411 -13.409015 14.972867 6.468314 -18.913439 -13.319967 60.020547 -57.623130 30.238057 0.000001 -0.000001 -0.000001 8.398445 -6.795926 102.075989 9.722796 -6.372659 113.587501 9.722814 -6.372701 113.587480 0.000001 0.000001 -0.000000 5.565202 -7.132972 96.068182 8.903114 -6.668859 106.378721 8.762275 -6.408001 105.842831 -0.000002 0.000001 -0.000001 -0.217578 -9.282884 106.046712 7.927440 -6.879219 98.121364 7.927438 -6.879210 98.121336 0.000004 0.000000 0.000000 -30.002825 11.256223 19.535926 39.621705 -6.113540 3.323405 -7.831945 1.739589 -14.356474 -6.096238 -0.000011 0.000000 0.000000 0.000001 -0.000000 -13.911683 -10.355361 -14.629164 37.217059 0.931238 -1.460835 -23.616743 -3.385802 12.376881 -0.423584 0.000007 -0.000002 -0.000000 0.000002 0.000000 
0.498657 186.089920 2.314641 0.106045 -40.801095 0.744288 12.043349 3.857175 0.078826 2.733389 0.519057 -0.131584 2.734494 0.515475 -0.123646 8.730220 1.306694 -6.744114 13.566444 4.663566 -17.725056 -0.000001 0.000002 0.000000 -0.000001 0.000002 0.000000 -0.000001 0.000002 0.000000 1.495023 -4.712036 -4.379715 -26.655259 -6.456904 -56.556517 0.000016 -124.569523 0.000014 6.406386 -5.465953 17.591369 2.092864 4.947790 -46.064435 5.220662 6.678764 -76.003565 2.704744 5.473695 -52.565122 -0.000000 -0.000000 0.000000 2.825144 10.329740 0.827376 6.817481 15.268495 2.201407 16.493899 15.543823 -13.682347 0.000001 -0.000003 -0.000003 2.622347 5.409903 -51.696250 5.986517 6.823048 -82.511656 3.423550 5.953029 -59.776053 -0.000000 -0.000000 -0.000002 2.389470 5.219535 -50.118798 5.674820 6.775128 -79.879199 2.984481 5.675918 -55.444074 -0.000001 0.000000 0.000001 3.934131 6.575425 -48.514468 5.282896 2.607191 -76.579268 2.606552 5.397451 -51.528545 -0.000001 0.000000 -0.000002 1.294376 16.137572 -10.030044 -21.768581 26.467490 73.953388 0.000026 114.687947 -0.000038 -11.870483 15.241968 -24.713689 8.473298 -6.779632 102.897497 9.760546 -6.356201 113.927733 9.819567 -6.540609 113.765086 0.000001 0.000000 0.000001 32.408411 -13.409008 14.972861 6.468311 -18.913444 -13.319963 60.020540 -57.623130 30.238053 0.000001 -0.000001 0.000003 8.398446 -6.795922 102.075982 9.722795 -6.372659 113.587501 9.722817 -6.372707 113.587473 -0.000002 0.000001 -0.000005 5.565203 -7.132962 96.068182 8.903111 -6.668857 106.378721 8.762274 -6.408001 105.842824 0.000000 0.000000 -0.000002 -0.217575 -9.282879 106.046712 7.927439 -6.879219 98.121364 7.927438 -6.879208 98.121336 -0.000001 0.000001 -0.000001 -32.123998 10.031974 19.287319 44.600585 -6.494049 3.609451 -6.028023 1.442292 -14.117897 -7.510589 0.000003 -0.000003 0.000000 0.000003 0.000000 -13.915590 -10.866232 -15.780927 38.631902 1.653367 -1.339606 -24.496550 -3.600487 12.632968 -0.155244 0.000014 -0.000003 -0.000000 0.000002 0.000000 
1.007255 184.907913 3.243153 -0.695173 -40.870657 0.469912 12.875305 3.600184 0.610025 2.606327 0.479547 -0.177002 2.608101 0.472190 -0.171119 8.668460 1.333062 -6.902015 13.541636 4.650140 -17.893250 -0.000003 -0.000001 0.000001 -0.000003 -0.000001 0.000001 -0.000003 -0.000001 0.000001 1.588247 -4.921039 -5.063641 -24.420066 -6.089700 -57.656823 0.000046 -124.747627 0.000044 6.542757 -6.964784 17.716100 2.092862 4.947794 -46.064435 5.220660 6.678766 -76.003565 2.704747 5.473694 -52.565119 0.000001 0.000001 -0.000000 2.825142 10.329745 0.827376 6.817484 15.268497 2.201413 16.493894 15.543818 -13.682343 0.000001 0.000001 -0.000001 2.622344 5.409904 -51.696247 5.986516 6.823051 -82.511656 3.423550 5.953024 -59.776053 -0.000001 -0.000001 -0.000001 2.389468 5.219538 -50.118798 5.674823 6.775127 -79.879192 2.984480 5.675919 -55.444074 -0.000000 0.000000 -0.000000 3.934130 6.575426 -48.514468 5.282896 2.607193 -76.579275 2.606545 5.397448 -51.528545 -0.000001 -0.000002 -0.000001 1.064660 15.727544 -10.657147 -20.691478 26.896221 73.938205 0.000038 114.353650 -0.000037 -11.786781 16.225323 -24.610766 8.473300 -6.779629 102.897497 9.760546 -6.356200 113.927726 9.819567 -6.540609 113.765092 0.000002 0.000002 -0.000003 32.408414 -13.409008 14.972866 6.468311 -18.913441 -13.319964 60.020547 -57.623137 30.238057 0.000000 -0.000000 0.000004 8.398446 -6.795918 102.075982 9.722796 -6.372660 113.587508 9.722820 -6.372698 113.587473 -0.000001 -0.000002 -0.000001 5.565202 -7.132959 96.068182 8.903116 -6.668857 106.378714 8.762276 -6.408003 105.842824 -0.000004 0.000001 -0.000001 -0.217577 -9.282878 106.046712 7.927445 -6.879221 98.121364 7.927439 -6.879204 98.121336 -0.000002 -0.000000 0.000002 -34.276434 9.166181 19.424218 49.314738 -7.575111 3.549105 -3.421591 1.067495 -13.706118 -11.757598 -0.001953 0.030474 0.000000 0.000002 0.000000 -14.400574 -11.347238 -17.075837 40.458270 2.981366 -1.414973 -25.502340 -3.787690 12.709155 -0.018141 0.000019 0.000001 0.000000 0.000002 0.000000 
